<svg width="104" height="26" viewBox="0 0 104 26" fill="none" xmlns="http://www.w3.org/2000/svg">
<path d="M8.61265 7.71729C6.28862 7.71729 4.11767 8.60649 2.49138 10.1445V2.45404H14.7862C15.316 2.45404 15.746 2.02407 15.746 1.49429C15.746 0.964512 15.316 0.534546 14.7862 0.534546H1.53164C1.00186 0.534546 0.571891 0.964512 0.571891 1.49429V13.0036C0.571891 13.4465 0.875171 13.8323 1.3061 13.9364C1.73606 14.0411 2.18283 13.8361 2.38533 13.4422C3.59029 11.0951 5.9767 9.63678 8.61265 9.63678C12.4694 9.63678 15.6073 12.7747 15.6073 16.6319C15.6073 20.4886 12.4694 23.6265 8.61265 23.6265C5.49971 23.6265 2.73228 21.5376 1.8829 18.5475C1.73798 18.0379 1.20868 17.7418 0.697618 17.8868C0.187513 18.0317 -0.108089 18.5624 0.0368323 19.072C1.11943 22.8842 4.64601 25.5465 8.61313 25.5465C13.5285 25.5465 17.5273 21.5477 17.5273 16.6324C17.5273 11.717 13.528 7.71729 8.61265 7.71729Z" fill="white"/>
<path d="M31.9421 0.0546875C25.0464 0.0546875 19.4362 5.6644 19.4362 12.5602C19.4362 19.456 25.0464 25.0662 31.9421 25.0662C38.8379 25.0662 44.4481 19.456 44.4481 12.5602C44.4481 5.6644 38.8379 0.0546875 31.9421 0.0546875ZM31.9421 23.1467C26.105 23.1467 21.3557 18.3978 21.3557 12.5602C21.3557 6.72253 26.1045 1.97418 31.9421 1.97418C37.7798 1.97418 42.5286 6.72301 42.5286 12.5602C42.5286 18.3974 37.7793 23.1467 31.9421 23.1467Z" fill="white"/>
<path d="M60.0277 0.0546875C53.1319 0.0546875 47.5217 5.6644 47.5217 12.5602C47.5217 19.456 53.1319 25.0662 60.0277 25.0662C66.9235 25.0662 72.5337 19.456 72.5337 12.5602C72.5337 5.6644 66.923 0.0546875 60.0277 0.0546875ZM60.0277 23.1467C54.1905 23.1467 49.4412 18.3978 49.4412 12.5602C49.4412 6.72253 54.19 1.97418 60.0277 1.97418C65.8654 1.97418 70.6142 6.72301 70.6142 12.5602C70.6142 18.3974 65.8649 23.1467 60.0277 23.1467Z" fill="white"/>
<path d="M82.1629 0.0301514C78.5758 0.0301514 75.6577 2.94826 75.6577 6.53531V18.8877C75.6577 19.4175 76.0877 19.8475 76.6175 19.8475C77.1472 19.8475 77.5772 19.4175 77.5772 18.8877V6.53531C77.5772 4.00686 79.6344 1.94964 82.1629 1.94964C84.6913 1.94964 86.7485 4.00686 86.7485 6.53531C86.7485 9.06377 84.6913 11.121 82.1629 11.121C82.0136 11.121 81.8663 11.1138 81.7209 11.1003C81.1955 11.0514 80.7242 11.4363 80.6738 11.9641C80.6234 12.4915 81.0097 12.9603 81.5376 13.0112C81.7435 13.0314 81.9517 13.041 82.1629 13.041C85.7499 13.041 88.668 10.1228 88.668 6.53579C88.6676 2.94826 85.7495 0.0301514 82.1629 0.0301514Z" fill="white"/>
<path d="M103.555 11.8783L98.406 6.78392L103.5 1.63488C103.873 1.25818 103.87 0.650181 103.493 0.27732C103.116 -0.095062 102.508 -0.0921831 102.136 0.284517L97.0412 5.43356L91.8605 0.307553C91.4833 -0.0653082 90.8758 -0.0619494 90.503 0.314751C90.1301 0.691452 90.1335 1.29945 90.5102 1.67231L95.6909 6.79832L90.5649 11.9795C90.192 12.3562 90.1954 12.9642 90.5721 13.3371C90.7592 13.5223 91.003 13.6144 91.2472 13.6144C91.4944 13.6144 91.742 13.5194 91.9296 13.3299L97.0556 8.14868L102.205 13.243C102.392 13.4282 102.636 13.5204 102.88 13.5204C103.127 13.5204 103.375 13.4254 103.562 13.2358C103.935 12.8586 103.932 12.2506 103.555 11.8783Z" fill="white"/>
</svg>
