<svg width="43" height="37" viewBox="0 0 43 37" fill="none" xmlns="http://www.w3.org/2000/svg">
<path d="M14.1952 36.9615C11.5781 37.2549 9.73255 35.8265 7.89709 34.2333C5.27356 31.9559 3.65682 28.5632 5.84443 25.9056C7.96342 23.3313 12.1791 22.7012 12.1791 22.7012C12.1791 22.7012 7.03852 23.3767 3.83834 20.5292C2.20633 19.077 1.29092 17.1781 1.06399 14.9811C0.772082 12.1551 0.296014 6.37296 0.263173 4.23825C0.226048 1.82492 1.14088 0.211622 2.73502 0.0340738C6.54957 -0.390773 11.0306 3.19828 15.3851 8.50563C19.6174 13.6641 21.2756 17.3131 21.2756 17.3131C21.2756 17.3131 22.9337 13.6641 27.166 8.50563C31.5205 3.19828 36.0015 -0.390773 39.8161 0.0340738C41.4102 0.211622 42.3251 1.82492 42.2879 4.23825C42.2551 6.37296 41.779 12.1551 41.4871 14.9811C41.2602 17.1781 40.3448 19.077 38.7128 20.5292C35.5126 23.3767 30.3721 22.7012 30.3721 22.7012C30.3721 22.7012 34.5877 23.3313 36.7067 25.9056C38.8943 28.5632 37.2775 31.9559 34.654 34.2333C32.8186 35.8265 30.973 37.2549 28.3559 36.9615C23.5958 36.4276 21.2756 27.5568 21.2756 27.5568C21.2756 27.5568 18.9554 36.4276 14.1952 36.9615Z" fill="#3BA1FF"/>
</svg>
