<svg width="36" height="37" viewBox="0 0 36 37" fill="none" xmlns="http://www.w3.org/2000/svg">
<path d="M35.3925 31.7856C33.8712 29.3379 32.6229 26.6977 30.8287 24.4423C30.3769 23.8744 28.8989 25.4319 26.1457 26.6487C23.9374 27.6247 20.3699 27.4936 18.1 26.4665C12.6444 23.9975 11.6671 15.0004 16.67 11.5425C19.798 9.38048 23.9093 9.51021 27.3125 10.9213C28.1302 11.2604 29.0976 12.6921 29.7137 12.0562C31.3925 10.3236 32.6777 8.24503 34.0422 6.25534C34.3851 5.75522 34.5605 5.15884 34.8197 4.61058C25.3977 -3.3269 8.54898 -0.803694 2.73114 10.5469C0.882119 14.1543 0.697157 18.5877 1.28919 22.5288C2.52666 30.7665 10.0725 36.0082 17.906 36.8454C21.4874 37.2281 24.4067 36.8762 27.8967 36.0557C30.5902 35.4224 33.2684 33.6132 35.3925 31.7856Z" fill="white"/>
</svg>
