<svg width="36" height="36" viewBox="0 0 36 36" fill="none" xmlns="http://www.w3.org/2000/svg">
<path fill-rule="evenodd" clip-rule="evenodd" d="M35.4758 17.7379C35.4758 27.5343 27.5343 35.4758 17.7379 35.4758C7.94152 35.4758 0 27.5343 0 17.7379C0 7.94152 7.94152 0 17.7379 0C27.5343 0 35.4758 7.94152 35.4758 17.7379ZM6.41097 17.3115C6.41097 11.7165 10.4757 6.5773 18.1316 6.5773C24.2853 6.5773 29.067 10.9613 29.067 16.8223C29.067 22.9357 25.2117 27.8552 19.8624 27.8552C18.0647 27.8552 16.3755 26.9213 15.7977 25.8181C15.7977 25.8181 14.9081 29.2047 14.6918 30.035C14.2914 31.5751 13.2111 33.5067 12.4866 34.6843C12.073 34.5563 11.6727 34.3994 11.2727 34.2425C11.1184 32.8396 10.9794 30.694 11.3359 29.1665C11.658 27.7829 13.4161 20.3494 13.4161 20.3494C13.4161 20.3494 12.8853 19.2865 12.8853 17.7167C12.8853 15.2498 14.3145 13.4091 16.0945 13.4091C17.6083 13.4091 18.3383 14.5457 18.3383 15.9075C18.3383 16.8809 17.9427 18.1616 17.5262 19.5097C17.2913 20.2703 17.0497 21.0524 16.8688 21.8128C16.4506 23.5791 17.7543 25.0192 19.4954 25.0192C22.648 25.0192 25.0712 21.6947 25.0712 16.8967C25.0712 12.6498 22.0203 9.68008 17.6629 9.68008C12.6165 9.68008 9.65427 13.4657 9.65427 17.3783C9.65427 18.9024 10.241 20.537 10.9744 21.4266C11.119 21.6027 11.1401 21.7562 11.0972 21.9349C11.0156 22.2746 10.8737 22.8513 10.7613 23.3077C10.6884 23.604 10.628 23.8496 10.6046 23.9468C10.5275 24.2722 10.3474 24.3398 10.0118 24.1835C7.79588 23.152 6.41097 19.9135 6.41097 17.3115Z" fill="#E14F4F"/>
</svg>
