<svg width="38" height="31" viewBox="0 0 38 31" fill="none" xmlns="http://www.w3.org/2000/svg">
<path d="M2.54051 13.3263C14.1422 8.28509 29.1557 2.13876 31.2281 1.28806C36.6643 -0.93852 38.3324 -0.511803 37.5007 4.41914C36.9034 7.96321 35.1799 19.697 33.8063 27.0004C32.9912 31.3314 31.1626 31.8447 28.2871 29.971C26.9042 29.0692 19.9246 24.5103 18.4097 23.4399C17.0269 22.4642 15.1198 21.2908 17.5116 18.9794C18.3627 18.1561 23.942 12.8942 28.2889 8.79843C28.8584 8.26048 28.143 7.37696 27.4858 7.80824C21.6268 11.6459 13.5034 16.9726 12.4695 17.6664C10.9076 18.7141 9.40755 19.1946 6.71482 18.4305C4.68028 17.8534 2.69282 17.1649 1.91925 16.9024C-1.05964 15.8921 -0.352532 14.5837 2.54051 13.3263Z" fill="#96D3FF"/>
</svg>
