<svg width="37" height="37" viewBox="0 0 37 37" fill="none" xmlns="http://www.w3.org/2000/svg">
<g clip-path="url(#clip0_292_10)">
<path fill-rule="evenodd" clip-rule="evenodd" d="M20.3671 15.8284C19.9747 16.0105 19.5946 16.1109 19.2263 16.1303C18.8579 16.1496 18.2142 16.1589 17.2956 16.1589H16.6213V11.6336H16.9944C17.9512 11.6336 18.6712 11.6408 19.1543 11.6554C19.6376 11.6698 20.0561 11.7534 20.4105 11.9065C20.7837 12.0698 21.0583 12.3329 21.2355 12.6966C21.4127 13.0608 21.5011 13.4151 21.5011 13.7597C21.5011 14.2293 21.4195 14.641 21.2572 14.9952C21.0942 15.35 20.7978 15.6273 20.3671 15.8284ZM21.4436 24.764C20.8885 25.0037 20.3435 25.1332 19.8075 25.1519C19.2717 25.1714 18.3051 25.181 16.9085 25.181H16.6213V19.8223H17.6114C18.5681 19.8223 19.3314 19.8294 19.9008 19.844C20.47 19.8583 20.9174 19.9281 21.2427 20.0522C21.7786 20.244 22.1803 20.5262 22.4483 20.8997C22.7163 21.2733 22.8505 21.7903 22.8505 22.4514C22.8505 22.9684 22.7375 23.4309 22.5129 23.8378C22.2882 24.2447 21.9318 24.5537 21.4436 24.764ZM27.1847 19.0824C26.3906 18.2255 25.3332 17.6579 24.0129 17.38V17.2649C24.9315 16.8821 25.6514 16.2835 26.173 15.4693C26.6942 14.6554 26.955 13.7263 26.955 12.6825C26.955 11.7823 26.7662 10.9875 26.3882 10.2976C26.0101 9.60802 25.4385 9.05755 24.673 8.64571C23.9646 8.26258 23.2068 8.01118 22.3981 7.89149C21.5895 7.77164 20.4009 7.71179 18.8313 7.71179H11.2818V29.1027H19.836C21.319 29.1027 22.5419 28.9686 23.5032 28.7002C24.4649 28.4326 25.3478 27.9822 26.1512 27.3501C26.8308 26.8234 27.3714 26.1576 27.7733 25.3531C28.175 24.5485 28.3761 23.6148 28.3761 22.5519C28.3761 21.0964 27.9789 19.9396 27.1847 19.0824ZM29.6937 37H7.272C3.25577 37 0 33.741 0 29.7211V7.27877C0 3.25883 3.25577 1.18739e-06 7.272 1.18739e-06H29.6937C33.71 1.18739e-06 36.9656 3.25883 36.9656 7.27877V29.7211C36.9656 33.741 33.71 37 29.6937 37ZM55.499 28.1141L50.8586 20.3436H49.2883V28.1141H43.1822V8.5042H49.2883V16.3796C50.1487 16.3684 50.7915 16.243 51.2161 16.0041C51.6405 15.7656 52.103 15.134 52.6031 14.1094C52.7659 13.7602 52.9402 13.3762 53.1266 12.9572C53.3125 12.5378 53.4813 12.1654 53.6323 11.8396C54.2489 10.5471 55.0077 9.66257 55.9092 9.18542C56.8102 8.70812 57.9067 8.46922 59.1976 8.46922C59.6513 8.46922 60.0812 8.47532 60.4885 8.48687C60.8954 8.49859 61.1868 8.5042 61.361 8.5042V13.7428H60.1747C59.8025 13.7428 59.4681 13.8157 59.1713 13.9612C58.8751 14.1067 58.6157 14.2901 58.3952 14.5113C58.174 14.744 58.0085 14.9768 57.8979 15.2096C57.7872 15.4428 57.6799 15.6695 57.5749 15.8908C57.3074 16.5191 57.11 16.9675 56.982 17.2353C56.854 17.503 56.627 17.7652 56.3016 18.0209L62.53 28.1141H55.499Z" fill="#4D71A9"/>
</g>
<defs>
<clipPath id="clip0_292_10">
<rect width="37" height="37" fill="white"/>
</clipPath>
</defs>
</svg>
