<svg width="51" height="35" viewBox="0 0 51 35" fill="none" xmlns="http://www.w3.org/2000/svg">
<path d="M25.6642 0H25.9479C28.5681 0.00933333 41.8449 0.102773 45.4247 1.04327C46.5069 1.33027 47.493 1.88973 48.2846 2.66573C49.0761 3.44172 49.6453 4.40708 49.9353 5.46536C50.2572 6.64873 50.4836 8.21514 50.6366 9.83139L50.6685 10.1552L50.7386 10.9649L50.7641 11.2888C50.9713 14.1352 50.9968 16.8008 51 17.3832V17.6168C50.9968 18.2209 50.9681 21.0672 50.7386 24.032L50.7131 24.3589L50.6844 24.6828C50.525 26.4641 50.2891 28.233 49.9353 29.5346C49.6462 30.5933 49.0773 31.5591 48.2856 32.3353C47.494 33.1114 46.5073 33.6706 45.4247 33.9567C41.727 34.9284 27.6724 34.9969 25.7247 35H25.2721C24.2871 35 20.2132 34.9813 15.9417 34.838L15.3998 34.8194L15.1224 34.8069L14.5774 34.7851L14.0323 34.7633C10.4939 34.6107 7.12448 34.3647 5.57208 33.9537C4.48984 33.6678 3.50349 33.109 2.71185 32.3335C1.92022 31.5579 1.3511 30.5928 1.06151 29.5346C0.707668 28.236 0.471777 26.4641 0.312397 24.6828L0.286891 24.3558L0.261391 24.032C0.104073 21.9218 0.0168951 19.8072 0 17.6915V17.3085C0.006375 16.6389 0.031875 14.3251 0.204011 11.7715L0.226326 11.4507L0.235891 11.2888L0.261391 10.9649L0.331522 10.1552L0.363397 9.83139C0.516408 8.21514 0.742734 6.6456 1.06469 5.46536C1.35379 4.40666 1.9227 3.44087 2.71437 2.66472C3.50603 1.88857 4.49267 1.32942 5.57528 1.04327C7.12768 0.638379 10.4971 0.389295 14.0354 0.233545L14.5774 0.21175L15.1256 0.193083L15.3998 0.18375L15.9449 0.161955C18.9786 0.0665535 22.0136 0.0136285 25.0489 0.00312849H25.6642V0ZM20.4013 9.99642V25.0004L33.6526 17.5015L20.4013 9.99642Z" fill="#FF6B6B"/>
</svg>
