<?xml version="1.0" encoding="UTF-8" standalone="no"?>
<!DOCTYPE svg PUBLIC "-//W3C//DTD SVG 1.1//EN" "http://www.w3.org/Graphics/SVG/1.1/DTD/svg11.dtd">
<!-- Created with Vectornator (http://vectornator.io/) -->
<svg height="400.0pt" stroke-miterlimit="10" style="fill-rule:nonzero;clip-rule:evenodd;stroke-linecap:round;stroke-linejoin:round;" version="1.1" viewBox="0 0 400 400" width="400.0pt" xml:space="preserve" xmlns="http://www.w3.org/2000/svg" xmlns:xlink="http://www.w3.org/1999/xlink">
<defs/>
<g id="Layer-1">
<g opacity="1">
<path d="M368.809 330.377C353.88 306.356 341.63 280.447 324.023 258.314C319.589 252.741 305.085 268.025 278.067 279.966C256.396 289.544 221.387 288.258 199.112 278.178C145.574 253.949 135.983 165.657 185.079 131.724C215.775 110.507 256.121 111.78 289.517 125.628C297.542 128.955 307.035 143.005 313.081 136.765C329.556 119.762 342.168 99.3644 355.558 79.8388C358.923 74.9309 360.645 69.0784 363.188 63.6982C270.727-14.1952 105.384 10.5659 48.2914 121.953C30.1463 157.354 28.3312 200.861 34.141 239.536C46.2848 320.376 120.335 371.815 197.208 380.03C232.354 383.786 261.002 380.333 295.25 372.281C321.683 366.066 347.965 348.312 368.809 330.377Z" fill="#fdfdfd" fill-rule="nonzero" opacity="1" stroke="none"/>
</g>
</g>
</svg>
