<svg width="100" height="100" viewBox="0 0 100 100" fill="none" xmlns="http://www.w3.org/2000/svg">
<path d="M9.06081 44.9962C38.0761 32.2316 75.6243 16.6689 80.8073 14.5149C94.403 8.87712 98.5748 9.95758 96.4947 22.4429C95.001 31.4166 90.6907 61.1269 87.2554 79.6193C85.2168 90.5855 80.6434 91.8853 73.4519 87.141C69.9935 84.8577 52.5376 73.3144 48.7491 70.604C45.2907 68.1337 40.521 65.1624 46.5028 59.31C48.6314 57.2252 62.585 43.9019 73.4565 33.5314C74.8809 32.1693 73.0917 29.9322 71.4479 31.0242C56.7948 40.7414 36.4786 54.2286 33.8928 55.9855C29.9866 58.6382 26.235 59.8548 19.5006 57.9202C14.4123 56.4588 9.44174 54.7157 7.50707 54.0508C0.0570015 51.4928 1.82544 48.1799 9.06081 44.9962Z" fill="#98D6FE"/>
</svg>
