<svg width="100" height="100" viewBox="0 0 100 100" fill="none" xmlns="http://www.w3.org/2000/svg">
<path d="M50.3026 17H50.8255C55.655 17.0176 80.1259 17.1938 86.724 18.9673C88.7186 19.5085 90.5362 20.5635 91.9951 22.0268C93.454 23.4901 94.5031 25.3105 95.0376 27.3061C95.631 29.5376 96.0482 32.4914 96.3302 35.5392L96.389 36.1499L96.5182 37.6767L96.5652 38.2875C96.9471 43.6549 96.9941 48.6816 97 49.7798V50.2202C96.9941 51.3595 96.9412 56.7268 96.5182 62.3174L96.4712 62.934L96.4183 63.5447C96.1246 66.9037 95.6898 70.2393 95.0376 72.6939C94.5048 74.6903 93.4562 76.5115 91.997 77.9751C90.5379 79.4387 88.7194 80.4931 86.724 81.0327C79.9086 82.8649 54.0041 82.9941 50.4142 83H49.5799C47.7644 83 40.2557 82.9648 32.3827 82.6946L31.3839 82.6594L30.8727 82.6359L29.8681 82.5948L28.8634 82.5537C22.3417 82.2659 16.1314 81.802 13.2701 81.0269C11.2754 80.4878 9.45741 79.4342 7.99832 77.9717C6.53922 76.5092 5.49026 74.6892 4.9565 72.6939C4.30433 70.2451 3.86955 66.9037 3.57579 63.5447L3.52878 62.9281L3.48178 62.3174C3.19182 58.3382 3.03114 54.3507 3 50.3612L3 49.6388C3.01175 48.3763 3.05875 44.0131 3.37602 39.1977L3.41715 38.5928L3.43478 38.2875L3.48178 37.6767L3.61104 36.1499L3.66979 35.5392C3.95181 32.4914 4.36896 29.5317 4.96237 27.3061C5.49523 25.3097 6.5438 23.4885 8.00295 22.0249C9.4621 20.5613 11.2806 19.5069 13.276 18.9673C16.1373 18.2038 22.3476 17.7341 28.8692 17.4404L29.8681 17.3993L30.8786 17.3641L31.3839 17.3465L32.3886 17.3054C37.9802 17.1255 43.5741 17.0257 49.1686 17.0059H50.3026V17ZM40.6024 35.8504V64.1437L65.0263 50.0029L40.6024 35.8504Z" fill="#98D6FE"/>
</svg>
